HIERARCHY
ROOT Hips
{
	OFFSET 0.000000 0.000000 0.000000
	CHANNELS 6 Xposition Yposition Zposition Zrotation Yrotation Xrotation 
	JOINT LHipJoint
	{
		OFFSET 0.000000 0.000000 0.000000
		CHANNELS 3 Zrotation Yrotation Xrotation
		JOINT LeftUpLeg
		{
			OFFSET 1.363060 -1.794630 0.839290
			CHANNELS 3 Zrotation Yrotation Xrotation
			JOINT LeftLeg
			{
				OFFSET 2.448110 -6.726130 0.000000
				CHANNELS 3 Zrotation Yrotation Xrotation
				JOINT LeftFoot
				{
					OFFSET 2.562200 -7.039590 0.000000
					CHANNELS 3 Zrotation Yrotation Xrotation
					JOINT LeftToeBase
					{
						OFFSET 0.157640 -0.433110 2.322550
						CHANNELS 3 Zrotation Yrotation Xrotation
						End Site
						{
							OFFSET 0.000000 0.000000 0.000000
						}
					}
				}
			}
		}
	}
	JOINT RHipJoint
	{
		OFFSET 0.000000 0.000000 0.000000
		CHANNELS 3 Zrotation Yrotation Xrotation
		JOINT RightUpLeg
		{
			OFFSET -1.305520 -1.794630 0.839290
			CHANNELS 3 Zrotation Yrotation Xrotation
			JOINT RightLeg
			{
				OFFSET -2.542530 -6.985550 0.000000
				CHANNELS 3 Zrotation Yrotation Xrotation
				JOINT RightFoot
				{
					OFFSET -2.568260 -7.056230 0.000000
					CHANNELS 3 Zrotation Yrotation Xrotation
					JOINT RightToeBase
					{
						OFFSET -0.164730 -0.452590 2.363150
						CHANNELS 3 Zrotation Yrotation Xrotation
						End Site
						{
							OFFSET 0.000000 0.000000 0.000000
						}
					}
				}
			}
		}
	}
	JOINT LowerBack
	{
		OFFSET 0.000000 0.000000 0.000000
		CHANNELS 3 Zrotation Yrotation Xrotation
		JOINT Spine
		{
			OFFSET 0.028270 2.035590 -0.193380
			CHANNELS 3 Zrotation Yrotation Xrotation
			JOINT Spine1
			{
				OFFSET 0.056720 2.048850 -0.042750
				CHANNELS 3 Zrotation Yrotation Xrotation
				JOINT Neck
				{
					OFFSET 0.000000 0.000000 0.000000
					CHANNELS 3 Zrotation Yrotation Xrotation
					JOINT Neck1
					{
						OFFSET -0.054170 1.746240 0.172020
						CHANNELS 3 Zrotation Yrotation Xrotation
						JOINT Head
						{
							OFFSET 0.104070 1.761360 -0.123970
							CHANNELS 3 Zrotation Yrotation Xrotation
							End Site
							{
								OFFSET 0.000000 0.000000 0.000000
							}
						}
					}
				}
				JOINT LeftShoulder
				{
					OFFSET 0.000000 0.000000 0.000000
					CHANNELS 3 Zrotation Yrotation Xrotation
					JOINT LeftArm
					{
						OFFSET 3.362410 1.200890 -0.311210
						CHANNELS 3 Zrotation Yrotation Xrotation
						JOINT LeftForeArm
						{
							OFFSET 4.983000 -0.000000 -0.000000
							CHANNELS 3 Zrotation Yrotation Xrotation
							JOINT LeftHand
							{
								OFFSET 3.483560 -0.000000 -0.000000
								CHANNELS 3 Zrotation Yrotation Xrotation
								JOINT LeftFingerBase
								{
									OFFSET 0.000000 0.000000 0.000000
									CHANNELS 3 Zrotation Yrotation Xrotation
									JOINT LeftHandIndex1
									{
										OFFSET 0.715260 -0.000000 -0.000000
										CHANNELS 3 Zrotation Yrotation Xrotation
										End Site
										{
											OFFSET 0.000000 0.000000 0.000000
										}
									}
								}
								JOINT LThumb
								{
									OFFSET 0.000000 0.000000 0.000000
									CHANNELS 3 Zrotation Yrotation Xrotation
									End Site
									{
										OFFSET 0.000000 0.000000 0.000000
									}
								}
							}
						}
					}
				}
				JOINT RightShoulder
				{
					OFFSET 0.000000 0.000000 0.000000
					CHANNELS 3 Zrotation Yrotation Xrotation
					JOINT RightArm
					{
						OFFSET -3.136600 1.374050 -0.404650
						CHANNELS 3 Zrotation Yrotation Xrotation
						JOINT RightForeArm
						{
							OFFSET -5.241900 -0.000000 -0.000000
							CHANNELS 3 Zrotation Yrotation Xrotation
							JOINT RightHand
							{
								OFFSET -3.444170 -0.000000 -0.000000
								CHANNELS 3 Zrotation Yrotation Xrotation
								JOINT RightFingerBase
								{
									OFFSET 0.000000 0.000000 0.000000
									CHANNELS 3 Zrotation Yrotation Xrotation
									JOINT RightHandIndex1
									{
										OFFSET -0.622530 -0.000000 -0.000000
										CHANNELS 3 Zrotation Yrotation Xrotation
										End Site
										{
											OFFSET 0.000000 0.000000 0.000000
										}
									}
								}
								JOINT RThumb
								{
									OFFSET 0.000000 0.000000 0.000000
									CHANNELS 3 Zrotation Yrotation Xrotation
									End Site
									{
										OFFSET 0.000000 0.000000 0.000000
									}
								}
							}
						}
					}
				}
			}
		}
	}
}
MOTION
Frames: 4
Frame Time: 0.008333
-0.840317 18.286628 5.989404 -4.761268 -2.519697 8.188683 2.363221 4.038046 4.116535 -9.411727 -3.479854 -21.609275 2.682782 9.756630 31.352290 0.491809 0.256058 -9.107329 9.022300 -16.822000 -56.167100 -2.556304 -4.295092 3.653525 21.383397 1.446675 -3.087229 0.388371 0.983537 1.613356 0.682438 -6.441817 -10.731369 -0.207000 2.929600 -8.082800 4.529508 1.272991 1.593241 8.299867 -0.640541 32.815986 -4.475237 1.026802 -19.337857 4.448358 -1.434422 -21.591980 -15.926560 0.022697 12.692185 -4.066400 -0.895500 5.250600 1.287996 -8.398594 -0.967948 -71.719074 42.561428 64.911150 119.846262 -50.748145 -85.853326 -0.851765 0.876613 -16.452619 14.249380 -25.859740 -6.825400 -7.125000 0.000000 0.000000 -9.106000 2.584600 8.799400 -5.737988 11.114319 2.754381 83.498667 -46.499944 48.828533 -122.707672 41.430394 -89.416817 -0.190121 -0.803228 -2.634222 0.292925 -24.895566 -0.212300 7.125000 0.000000 0.000000 29.905900 -51.485300 -5.166200 
-0.822960 18.285745 6.012939 -4.853747 -2.530081 8.723207 2.309696 4.016383 4.074633 -9.323421 -3.875346 -21.781470 2.606846 9.719396 31.092847 0.446911 0.601751 -9.545406 8.981800 -16.796000 -56.027200 -2.614157 -4.254428 3.582713 21.493620 1.584420 -3.504388 0.388477 0.977128 1.608773 0.684050 -6.446118 -10.690568 -0.194600 2.841100 -7.836600 4.417634 1.301506 1.767356 7.740515 -0.360453 31.958878 -4.415386 1.064957 -18.985811 4.490423 -1.527013 -21.327717 -14.748187 -0.296889 12.097617 -3.760400 -0.929200 4.995400 1.132184 -7.959865 -0.855685 -78.159672 43.150674 57.173109 120.382564 -50.829552 -86.125810 -0.766699 0.951091 -14.070625 11.970018 -25.111327 -5.579700 -7.125000 0.000000 0.000000 -10.460200 3.617900 9.949400 -5.436155 10.670010 3.912580 89.527633 -44.695365 40.695611 -123.800642 42.238594 -89.873720 -0.031353 -0.732856 -0.720380 0.560378 -25.296578 -0.249100 7.125000 0.000000 0.000000 30.269900 -51.872700 -5.544700 
-0.806387 18.285745 6.032650 -4.966129 -2.308981 9.164389 2.291652 3.974906 4.008019 -9.179600 -4.346457 -21.942503 2.561220 9.703824 30.938850 0.427396 0.761225 -9.763610 8.955900 -16.779200 -55.937300 -2.639777 -4.227649 3.515560 21.638331 1.556287 -4.015969 0.375000 0.851239 1.909682 0.650109 -6.301823 -10.768260 -0.200400 2.882500 -7.951800 4.140652 1.287963 2.046690 7.510792 -0.228743 31.002651 -4.371064 1.068394 -18.721907 4.636028 -1.642554 -20.779427 -13.800766 -0.653534 11.318917 -3.528400 -0.992700 4.703600 0.945921 -7.657683 -0.649489 -84.820966 43.207043 49.006465 121.118618 -51.111109 -86.426804 -0.656269 1.026615 -11.531462 9.113307 -24.556972 -4.168500 -7.125000 0.000000 0.000000 -12.199800 4.484000 11.477200 -5.203990 10.381828 4.653857 95.241102 -42.936359 32.579984 -125.177140 43.416983 -90.344954 0.188187 -0.642555 1.396298 1.245595 -26.012470 -0.445000 7.125000 0.000000 0.000000 31.201500 -52.497900 -6.252500 
-0.794128 18.284470 6.048145 -5.065556 -1.897595 9.451186 2.289322 3.923162 3.933487 -9.017946 -4.739380 -22.075833 2.543186 9.705066 30.876051 0.437033 0.731185 -9.797090 8.941500 -16.769900 -55.887500 -2.654316 -4.221646 3.445128 21.783401 1.182607 -4.109061 0.386237 0.954171 1.600624 0.656177 -6.316604 -10.678094 -0.174500 2.691200 -7.420300 3.781336 1.247709 2.401390 7.486889 -0.200838 30.110963 -4.419293 1.060086 -18.687504 3.983653 -1.812166 -20.192691 -12.215114 -1.012670 10.791127 -3.103200 -1.065800 4.504300 0.830490 -7.635429 -0.447209 -91.143698 42.927443 41.178885 122.468250 -51.332702 -87.197091 -0.538307 1.066829 -8.583567 6.454320 -22.679449 -2.765500 -7.125000 0.000000 0.000000 -13.814600 6.590800 12.516200 -5.004429 10.298672 4.847156 100.711335 -41.424988 24.402420 -126.971777 44.441980 -91.120160 0.332086 -0.520556 2.834270 3.942911 -27.536653 -1.630300 7.125000 0.000000 0.000000 34.696700 -53.456700 -7.968100 
